<svg xmlns="http://www.w3.org/2000/svg" version="1.1" xmlns:xlink="http://www.w3.org/1999/xlink" xmlns:svgjs="http://svgjs.com/svgjs" width="512" height="512" x="0" y="0" viewBox="0 0 24 24" style="enable-background:new 0 0 512 512" xml:space="preserve" class=""><g transform="matrix(1.114,0,0,1.114,-1.38,-1.38)"><g data-name="Layer 2"><path fill="#fedb29" d="M22.75 5v9.25a2.74 2.74 0 0 1-.81 1.87l-4.82 4.82a2.74 2.74 0 0 1-1.87.81H4A2.75 2.75 0 0 1 1.25 19V5A2.75 2.75 0 0 1 4 2.25h16A2.75 2.75 0 0 1 22.75 5z" data-original="#fedb29" class=""></path><path fill="#ffffff" d="M17 9.75H7a.75.75 0 0 1 0-1.5h10a.75.75 0 0 1 0 1.5zM13 13.75H7a.75.75 0 0 1 0-1.5h6a.75.75 0 0 1 0 1.5z" data-original="#ffffff" class=""></path><path fill="#feae42" d="M22.75 14.25a2.74 2.74 0 0 1-.81 1.87l-4.82 4.82a2.74 2.74 0 0 1-1.87.81V16A1.76 1.76 0 0 1 17 14.25z" data-original="#feae42" class=""></path></g></g></svg>